<?xml version="1.0" encoding="UTF-8" standalone="no"?>
<!DOCTYPE svg PUBLIC "-//W3C//DTD SVG 1.1//EN"
 "http://www.w3.org/Graphics/SVG/1.1/DTD/svg11.dtd">
<!-- Generated by graphviz version 14.0.2 (20251019.1705)
 -->
<!-- Pages: 1 -->
<svg width="189pt" height="823pt"
 viewBox="0.00 0.00 189.00 823.00" xmlns="http://www.w3.org/2000/svg" xmlns:xlink="http://www.w3.org/1999/xlink">
<g id="graph0" class="graph" transform="scale(1 1) rotate(0) translate(4 819)">
<polygon fill="white" stroke="none" points="-4,4 -4,-819 184.5,-819 184.5,4 -4,4"/>
<!-- ticket_histories -->
<g id="node1" class="node">
<title>ticket_histories</title>
<polygon fill="none" stroke="black" points="8,-254 8,-280.5 172.5,-280.5 172.5,-254 8,-254"/>
<text xml:space="preserve" text-anchor="start" x="31.38" y="-261.3" font-family="Helvetica,sans-Serif" font-weight="bold" font-size="16.00">ticket_histories</text>
<polygon fill="none" stroke="black" points="8,-229 8,-254 172.5,-254 172.5,-229 8,-229"/>
<text xml:space="preserve" text-anchor="start" x="13" y="-236.7" font-family="Helvetica,sans-Serif" text-decoration="underline" font-size="14.00">id</text>
<text xml:space="preserve" text-anchor="start" x="23.5" y="-236.7" font-family="Helvetica,sans-Serif" font-size="14.00"> </text>
<text xml:space="preserve" text-anchor="start" x="27.25" y="-236.7" font-family="Helvetica,sans-Serif" font-size="14.00"> [INTEGER]</text>
<polygon fill="none" stroke="black" points="8,-204 8,-229 172.5,-229 172.5,-204 8,-204"/>
<text xml:space="preserve" text-anchor="start" x="13" y="-211.7" font-family="Helvetica,sans-Serif" font-size="14.00">changed_at</text>
<text xml:space="preserve" text-anchor="start" x="83.5" y="-211.7" font-family="Helvetica,sans-Serif" font-size="14.00"> </text>
<text xml:space="preserve" text-anchor="start" x="87.25" y="-211.7" font-family="Helvetica,sans-Serif" font-size="14.00"> [DATETIME]</text>
<polygon fill="none" stroke="black" points="8,-179 8,-204 172.5,-204 172.5,-179 8,-179"/>
<text xml:space="preserve" text-anchor="start" x="13" y="-186.7" font-family="Helvetica,sans-Serif" font-size="14.00">changed_field</text>
<text xml:space="preserve" text-anchor="start" x="97" y="-186.7" font-family="Helvetica,sans-Serif" font-size="14.00"> </text>
<text xml:space="preserve" text-anchor="start" x="100.75" y="-186.7" font-family="Helvetica,sans-Serif" font-size="14.00"> [TEXT]</text>
<polygon fill="none" stroke="black" points="8,-154 8,-179 172.5,-179 172.5,-154 8,-154"/>
<text xml:space="preserve" text-anchor="start" x="13" y="-161.7" font-family="Helvetica,sans-Serif" font-size="14.00">created_at</text>
<text xml:space="preserve" text-anchor="start" x="76.75" y="-161.7" font-family="Helvetica,sans-Serif" font-size="14.00"> </text>
<text xml:space="preserve" text-anchor="start" x="80.5" y="-161.7" font-family="Helvetica,sans-Serif" font-size="14.00"> [DATETIME]</text>
<polygon fill="none" stroke="black" points="8,-129 8,-154 172.5,-154 172.5,-129 8,-129"/>
<text xml:space="preserve" text-anchor="start" x="13" y="-136.7" font-family="Helvetica,sans-Serif" font-size="14.00">deleted_at</text>
<text xml:space="preserve" text-anchor="start" x="76" y="-136.7" font-family="Helvetica,sans-Serif" font-size="14.00"> </text>
<text xml:space="preserve" text-anchor="start" x="79.75" y="-136.7" font-family="Helvetica,sans-Serif" font-size="14.00"> [DATETIME]</text>
<polygon fill="none" stroke="black" points="8,-104 8,-129 172.5,-129 172.5,-104 8,-104"/>
<text xml:space="preserve" text-anchor="start" x="13" y="-111.7" font-family="Helvetica,sans-Serif" font-size="14.00">new_value</text>
<text xml:space="preserve" text-anchor="start" x="77.5" y="-111.7" font-family="Helvetica,sans-Serif" font-size="14.00"> </text>
<text xml:space="preserve" text-anchor="start" x="81.25" y="-111.7" font-family="Helvetica,sans-Serif" font-size="14.00"> [TEXT]</text>
<polygon fill="none" stroke="black" points="8,-79 8,-104 172.5,-104 172.5,-79 8,-79"/>
<text xml:space="preserve" text-anchor="start" x="13" y="-86.7" font-family="Helvetica,sans-Serif" font-size="14.00">old_value</text>
<text xml:space="preserve" text-anchor="start" x="70.75" y="-86.7" font-family="Helvetica,sans-Serif" font-size="14.00"> </text>
<text xml:space="preserve" text-anchor="start" x="74.5" y="-86.7" font-family="Helvetica,sans-Serif" font-size="14.00"> [TEXT]</text>
<polygon fill="none" stroke="black" points="8,-54 8,-79 172.5,-79 172.5,-54 8,-54"/>
<text xml:space="preserve" text-anchor="start" x="13" y="-61.7" font-family="Helvetica,sans-Serif" font-size="14.00">ticket_id</text>
<text xml:space="preserve" text-anchor="start" x="62.5" y="-61.7" font-family="Helvetica,sans-Serif" font-size="14.00"> </text>
<text xml:space="preserve" text-anchor="start" x="66.25" y="-61.7" font-family="Helvetica,sans-Serif" font-size="14.00"> [INTEGER]</text>
<polygon fill="none" stroke="black" points="8,-29 8,-54 172.5,-54 172.5,-29 8,-29"/>
<text xml:space="preserve" text-anchor="start" x="13" y="-36.7" font-family="Helvetica,sans-Serif" font-size="14.00">updated_at</text>
<text xml:space="preserve" text-anchor="start" x="80.5" y="-36.7" font-family="Helvetica,sans-Serif" font-size="14.00"> </text>
<text xml:space="preserve" text-anchor="start" x="84.25" y="-36.7" font-family="Helvetica,sans-Serif" font-size="14.00"> [DATETIME]</text>
<polygon fill="none" stroke="black" points="8,-4 8,-29 172.5,-29 172.5,-4 8,-4"/>
<text xml:space="preserve" text-anchor="start" x="13" y="-11.7" font-family="Helvetica,sans-Serif" font-size="14.00">user</text>
<text xml:space="preserve" text-anchor="start" x="39.25" y="-11.7" font-family="Helvetica,sans-Serif" font-size="14.00"> </text>
<text xml:space="preserve" text-anchor="start" x="43" y="-11.7" font-family="Helvetica,sans-Serif" font-size="14.00"> [TEXT]</text>
</g>
<!-- tickets -->
<g id="node2" class="node">
<title>tickets</title>
<polygon fill="none" stroke="black" points="9.5,-557 9.5,-583.5 171,-583.5 171,-557 9.5,-557"/>
<text xml:space="preserve" text-anchor="start" x="64.75" y="-564.3" font-family="Helvetica,sans-Serif" font-weight="bold" font-size="16.00">tickets</text>
<polygon fill="none" stroke="black" points="9.5,-532 9.5,-557 171,-557 171,-532 9.5,-532"/>
<text xml:space="preserve" text-anchor="start" x="14.5" y="-539.7" font-family="Helvetica,sans-Serif" text-decoration="underline" font-size="14.00">id</text>
<text xml:space="preserve" text-anchor="start" x="25" y="-539.7" font-family="Helvetica,sans-Serif" font-size="14.00"> </text>
<text xml:space="preserve" text-anchor="start" x="28.75" y="-539.7" font-family="Helvetica,sans-Serif" font-size="14.00"> [INTEGER]</text>
<polygon fill="none" stroke="black" points="9.5,-507 9.5,-532 171,-532 171,-507 9.5,-507"/>
<text xml:space="preserve" text-anchor="start" x="14.5" y="-514.7" font-family="Helvetica,sans-Serif" font-size="14.00">closed_at</text>
<text xml:space="preserve" text-anchor="start" x="72.25" y="-514.7" font-family="Helvetica,sans-Serif" font-size="14.00"> </text>
<text xml:space="preserve" text-anchor="start" x="76" y="-514.7" font-family="Helvetica,sans-Serif" font-size="14.00"> [DATETIME]</text>
<polygon fill="none" stroke="black" points="9.5,-482 9.5,-507 171,-507 171,-482 9.5,-482"/>
<text xml:space="preserve" text-anchor="start" x="14.5" y="-489.7" font-family="Helvetica,sans-Serif" font-size="14.00">created_at</text>
<text xml:space="preserve" text-anchor="start" x="78.25" y="-489.7" font-family="Helvetica,sans-Serif" font-size="14.00"> </text>
<text xml:space="preserve" text-anchor="start" x="82" y="-489.7" font-family="Helvetica,sans-Serif" font-size="14.00"> [DATETIME]</text>
<polygon fill="none" stroke="black" points="9.5,-457 9.5,-482 171,-482 171,-457 9.5,-457"/>
<text xml:space="preserve" text-anchor="start" x="14.5" y="-464.7" font-family="Helvetica,sans-Serif" font-size="14.00">deleted_at</text>
<text xml:space="preserve" text-anchor="start" x="77.5" y="-464.7" font-family="Helvetica,sans-Serif" font-size="14.00"> </text>
<text xml:space="preserve" text-anchor="start" x="81.25" y="-464.7" font-family="Helvetica,sans-Serif" font-size="14.00"> [DATETIME]</text>
<polygon fill="none" stroke="black" points="9.5,-432 9.5,-457 171,-457 171,-432 9.5,-432"/>
<text xml:space="preserve" text-anchor="start" x="14.5" y="-439.7" font-family="Helvetica,sans-Serif" font-size="14.00">description</text>
<text xml:space="preserve" text-anchor="start" x="79.75" y="-439.7" font-family="Helvetica,sans-Serif" font-size="14.00"> </text>
<text xml:space="preserve" text-anchor="start" x="83.5" y="-439.7" font-family="Helvetica,sans-Serif" font-size="14.00"> [TEXT]</text>
<polygon fill="none" stroke="black" points="9.5,-407 9.5,-432 171,-432 171,-407 9.5,-407"/>
<text xml:space="preserve" text-anchor="start" x="14.5" y="-414.7" font-family="Helvetica,sans-Serif" font-size="14.00">priority</text>
<text xml:space="preserve" text-anchor="start" x="55" y="-414.7" font-family="Helvetica,sans-Serif" font-size="14.00"> </text>
<text xml:space="preserve" text-anchor="start" x="58.75" y="-414.7" font-family="Helvetica,sans-Serif" font-size="14.00"> [TEXT]</text>
<polygon fill="none" stroke="black" points="9.5,-382 9.5,-407 171,-407 171,-382 9.5,-382"/>
<text xml:space="preserve" text-anchor="start" x="14.5" y="-389.7" font-family="Helvetica,sans-Serif" font-size="14.00">state</text>
<text xml:space="preserve" text-anchor="start" x="43.75" y="-389.7" font-family="Helvetica,sans-Serif" font-size="14.00"> </text>
<text xml:space="preserve" text-anchor="start" x="47.5" y="-389.7" font-family="Helvetica,sans-Serif" font-size="14.00"> [TEXT]</text>
<polygon fill="none" stroke="black" points="9.5,-357 9.5,-382 171,-382 171,-357 9.5,-357"/>
<text xml:space="preserve" text-anchor="start" x="14.5" y="-364.7" font-family="Helvetica,sans-Serif" font-size="14.00">title</text>
<text xml:space="preserve" text-anchor="start" x="35.5" y="-364.7" font-family="Helvetica,sans-Serif" font-size="14.00"> </text>
<text xml:space="preserve" text-anchor="start" x="39.25" y="-364.7" font-family="Helvetica,sans-Serif" font-size="14.00"> [TEXT]</text>
<polygon fill="none" stroke="black" points="9.5,-332 9.5,-357 171,-357 171,-332 9.5,-332"/>
<text xml:space="preserve" text-anchor="start" x="14.5" y="-339.7" font-family="Helvetica,sans-Serif" font-size="14.00">updated_at</text>
<text xml:space="preserve" text-anchor="start" x="82" y="-339.7" font-family="Helvetica,sans-Serif" font-size="14.00"> </text>
<text xml:space="preserve" text-anchor="start" x="85.75" y="-339.7" font-family="Helvetica,sans-Serif" font-size="14.00"> [DATETIME]</text>
<polygon fill="none" stroke="black" points="9.5,-307 9.5,-332 171,-332 171,-307 9.5,-307"/>
<text xml:space="preserve" text-anchor="start" x="14.5" y="-314.7" font-family="Helvetica,sans-Serif" font-size="14.00">user</text>
<text xml:space="preserve" text-anchor="start" x="40.75" y="-314.7" font-family="Helvetica,sans-Serif" font-size="14.00"> </text>
<text xml:space="preserve" text-anchor="start" x="44.5" y="-314.7" font-family="Helvetica,sans-Serif" font-size="14.00"> [TEXT]</text>
</g>
<!-- users -->
<g id="node3" class="node">
<title>users</title>
<polygon fill="none" stroke="black" points="9.5,-784.5 9.5,-811 171,-811 171,-784.5 9.5,-784.5"/>
<text xml:space="preserve" text-anchor="start" x="68.88" y="-791.8" font-family="Helvetica,sans-Serif" font-weight="bold" font-size="16.00">users</text>
<polygon fill="none" stroke="black" points="9.5,-759.5 9.5,-784.5 171,-784.5 171,-759.5 9.5,-759.5"/>
<text xml:space="preserve" text-anchor="start" x="14.5" y="-767.2" font-family="Helvetica,sans-Serif" text-decoration="underline" font-size="14.00">id</text>
<text xml:space="preserve" text-anchor="start" x="25" y="-767.2" font-family="Helvetica,sans-Serif" font-size="14.00"> </text>
<text xml:space="preserve" text-anchor="start" x="28.75" y="-767.2" font-family="Helvetica,sans-Serif" font-size="14.00"> [INTEGER]</text>
<polygon fill="none" stroke="black" points="9.5,-734.5 9.5,-759.5 171,-759.5 171,-734.5 9.5,-734.5"/>
<text xml:space="preserve" text-anchor="start" x="14.5" y="-742.2" font-family="Helvetica,sans-Serif" font-size="14.00">created_at</text>
<text xml:space="preserve" text-anchor="start" x="78.25" y="-742.2" font-family="Helvetica,sans-Serif" font-size="14.00"> </text>
<text xml:space="preserve" text-anchor="start" x="82" y="-742.2" font-family="Helvetica,sans-Serif" font-size="14.00"> [DATETIME]</text>
<polygon fill="none" stroke="black" points="9.5,-709.5 9.5,-734.5 171,-734.5 171,-709.5 9.5,-709.5"/>
<text xml:space="preserve" text-anchor="start" x="14.5" y="-717.2" font-family="Helvetica,sans-Serif" font-size="14.00">deleted_at</text>
<text xml:space="preserve" text-anchor="start" x="77.5" y="-717.2" font-family="Helvetica,sans-Serif" font-size="14.00"> </text>
<text xml:space="preserve" text-anchor="start" x="81.25" y="-717.2" font-family="Helvetica,sans-Serif" font-size="14.00"> [DATETIME]</text>
<polygon fill="none" stroke="black" points="9.5,-684.5 9.5,-709.5 171,-709.5 171,-684.5 9.5,-684.5"/>
<text xml:space="preserve" text-anchor="start" x="14.5" y="-692.2" font-family="Helvetica,sans-Serif" font-size="14.00">password</text>
<text xml:space="preserve" text-anchor="start" x="72.25" y="-692.2" font-family="Helvetica,sans-Serif" font-size="14.00"> </text>
<text xml:space="preserve" text-anchor="start" x="76" y="-692.2" font-family="Helvetica,sans-Serif" font-size="14.00"> [TEXT]</text>
<polygon fill="none" stroke="black" points="9.5,-659.5 9.5,-684.5 171,-684.5 171,-659.5 9.5,-659.5"/>
<text xml:space="preserve" text-anchor="start" x="14.5" y="-667.2" font-family="Helvetica,sans-Serif" font-size="14.00">role</text>
<text xml:space="preserve" text-anchor="start" x="37" y="-667.2" font-family="Helvetica,sans-Serif" font-size="14.00"> </text>
<text xml:space="preserve" text-anchor="start" x="40.75" y="-667.2" font-family="Helvetica,sans-Serif" font-size="14.00"> [TEXT]</text>
<polygon fill="none" stroke="black" points="9.5,-634.5 9.5,-659.5 171,-659.5 171,-634.5 9.5,-634.5"/>
<text xml:space="preserve" text-anchor="start" x="14.5" y="-642.2" font-family="Helvetica,sans-Serif" font-size="14.00">updated_at</text>
<text xml:space="preserve" text-anchor="start" x="82" y="-642.2" font-family="Helvetica,sans-Serif" font-size="14.00"> </text>
<text xml:space="preserve" text-anchor="start" x="85.75" y="-642.2" font-family="Helvetica,sans-Serif" font-size="14.00"> [DATETIME]</text>
<polygon fill="none" stroke="black" points="9.5,-609.5 9.5,-634.5 171,-634.5 171,-609.5 9.5,-609.5"/>
<text xml:space="preserve" text-anchor="start" x="14.5" y="-617.2" font-family="Helvetica,sans-Serif" font-size="14.00">username</text>
<text xml:space="preserve" text-anchor="start" x="75.25" y="-617.2" font-family="Helvetica,sans-Serif" font-size="14.00"> </text>
<text xml:space="preserve" text-anchor="start" x="79" y="-617.2" font-family="Helvetica,sans-Serif" font-size="14.00"> [TEXT]</text>
</g>
</g>
</svg>
